<?xml version="1.0" encoding="utf-8"?>
<!-- Generator: Adobe Illustrator 24.2.1, SVG Export Plug-In . SVG Version: 6.00 Build 0)  -->
<svg version="1.1" id="Layer_1" xmlns="http://www.w3.org/2000/svg" xmlns:xlink="http://www.w3.org/1999/xlink" x="0px" y="0px"
	 viewBox="0 0 19.44 25" style="enable-background:new 0 0 19.44 25;" xml:space="preserve">
<g>
	<path d="M8.9,23.98V3.31L2.6,9.65C2.41,9.84,2.18,9.96,1.94,9.96c-0.5,0-0.97-0.47-0.97-1.01c0-0.31,0.16-0.5,0.35-0.7l7.89-7.89
		C9.4,0.17,9.6,0.05,9.87,0.05s0.47,0.12,0.66,0.31l7.89,7.89c0.19,0.19,0.35,0.39,0.35,0.7c0,0.54-0.47,1.01-0.97,1.01
		c-0.23,0-0.47-0.12-0.66-0.31l-6.3-6.33v20.67c0,0.54-0.43,0.97-0.97,0.97S8.9,24.53,8.9,23.98z"/>
</g>
</svg>
