<svg xmlns="http://www.w3.org/2000/svg" viewBox="0 0 16.57 11.24"><defs><style>.cls-1{fill:#fff;}</style></defs><g id="Layer_2" data-name="Layer 2"><g id="Layer_1-2" data-name="Layer 1"><path class="cls-1" d="M14.33,0H2.25A2.25,2.25,0,0,0,0,2.25V9a2.25,2.25,0,0,0,2.25,2.24H14.33A2.24,2.24,0,0,0,16.57,9V2.25A2.24,2.24,0,0,0,14.33,0Zm0,1.12a1,1,0,0,1,.23,0L8.33,6.56,2,1.17a.79.79,0,0,1,.22,0ZM15.45,9a1.12,1.12,0,0,1-1.12,1.12H2.25A1.13,1.13,0,0,1,1.12,9V2.25a1.14,1.14,0,0,1,.07-.33L8.33,8l7.06-6.11a1.07,1.07,0,0,1,.06.32Z"/></g></g></svg>